<svg width="18" height="11" viewBox="0 0 18 11" fill="none" xmlns="http://www.w3.org/2000/svg">
    <path
        d="M1.01119 6.47043H2.02239C2.58085 6.47043 3.03358 6.90498 3.03358 7.44102V9.38219C3.03358 9.91823 2.58085 10.3528 2.02239 10.3528H1.01119C0.452726 10.3528 0 9.91823 0 9.38219V7.44102C0 6.90498 0.452726 6.47043 1.01119 6.47043Z"
        fill="#9FA2A8" />
    <path
        d="M5.72945 4.52927H6.74065C7.29911 4.52927 7.75184 4.96381 7.75184 5.49985V9.38221C7.75184 9.91825 7.29911 10.3528 6.74065 10.3528H5.72945C5.17099 10.3528 4.71826 9.91825 4.71826 9.38221V5.49985C4.71826 4.96381 5.17099 4.52927 5.72945 4.52927Z"
        fill="#9FA2A8" />
    <path
        d="M10.4497 2.26486H11.4609C12.0193 2.26486 12.4721 2.69941 12.4721 3.23545V9.38251C12.4721 9.91855 12.0193 10.3531 11.4609 10.3531H10.4497C9.8912 10.3531 9.43848 9.91855 9.43848 9.38251V3.23545C9.43848 2.69941 9.8912 2.26486 10.4497 2.26486Z"
        fill="#9FA2A8" />
    <path
        d="M15.1679 0H16.1791C16.7376 0 17.1903 0.434547 17.1903 0.970588V9.38235C17.1903 9.9184 16.7376 10.3529 16.1791 10.3529H15.1679C14.6095 10.3529 14.1567 9.9184 14.1567 9.38235V0.970588C14.1567 0.434547 14.6095 0 15.1679 0V0Z"
        fill="#9FA2A8" />
</svg>
    