<svg width="41" height="28" viewBox="0 0 41 28" fill="none" xmlns="http://www.w3.org/2000/svg">
    <path
        d="M28.1998 13.0386C29.5912 12.1941 31.2196 11.8249 32.8392 11.9868C34.4588 12.1487 35.9818 12.8329 37.1786 13.9362C38.3753 15.0395 39.1808 16.502 39.4736 18.1031C39.7664 19.7043 39.5305 21.3572 38.8017 22.8126C38.0728 24.2679 36.8904 25.4468 35.4329 26.1714C33.9754 26.896 32.3218 27.127 30.7215 26.8295C29.1213 26.532 27.6611 25.7222 26.5614 24.5223C25.4616 23.3223 24.7819 21.7973 24.6247 20.1772C24.0639 16.791 23.946 12.7417 25.4187 9.13362C26.9984 5.26858 30.2992 2.17249 36.0544 0.88962C36.5335 0.797905 37.0294 0.896378 37.437 1.16416C37.8447 1.43194 38.132 1.84798 38.2381 2.32404C38.3441 2.8001 38.2606 3.29876 38.0052 3.71426C37.7497 4.12977 37.3425 4.42945 36.8699 4.54976C32.2142 5.58768 29.97 7.91918 28.8917 10.5525C28.5719 11.3385 28.3442 12.173 28.1998 13.0386Z"
        fill="#494D52" />
    <path
        d="M4.49323 13.3218C5.88467 12.4773 7.51301 12.1081 9.13263 12.27C10.7522 12.4319 12.2753 13.1161 13.472 14.2194C14.6687 15.3227 15.4743 16.7852 15.767 18.3863C16.0598 19.9875 15.824 21.6404 15.0951 23.0958C14.3663 24.5511 13.1839 25.73 11.7264 26.4546C10.2689 27.1792 8.61527 27.4102 7.01499 27.1127C5.41472 26.8152 3.95458 26.0054 2.85483 24.8055C1.75507 23.6055 1.07535 22.0805 0.918197 20.4604C0.357372 17.0742 0.239473 13.0249 1.71213 9.41682C3.29182 5.55178 6.5927 2.45569 12.3479 1.17282C12.8269 1.08111 13.3228 1.17958 13.7305 1.44736C14.1381 1.71515 14.4255 2.13118 14.5315 2.60724C14.6376 3.08331 14.554 3.58196 14.2986 3.99747C14.0432 4.41297 13.636 4.71265 13.1633 4.83296C8.50769 5.87088 6.2635 8.20239 5.18514 10.8357C4.86534 11.6217 4.63762 12.4562 4.49323 13.3218Z"
        fill="#494D52" />
</svg>
    