<svg width="19" height="13" viewBox="0 0 19 13" fill="none" xmlns="http://www.w3.org/2000/svg">
    <path
        d="M9.27246 12.3311C9.7207 12.3311 9.94922 12.1377 10.125 11.6455L11.1533 8.80664H16.0137L17.0332 11.6455C17.209 12.1377 17.4375 12.3311 17.8857 12.3311C18.3779 12.3311 18.7031 12.041 18.7031 11.584C18.7031 11.4258 18.668 11.2852 18.6064 11.0918L14.7656 0.84375C14.5547 0.272461 14.1768 0 13.5791 0C13.0078 0 12.6211 0.272461 12.4189 0.834961L8.57812 11.1094C8.50781 11.3027 8.48145 11.4434 8.48145 11.5928C8.48145 12.0498 8.78027 12.3311 9.27246 12.3311ZM11.5752 7.45312L13.5527 1.91602H13.6055L15.5742 7.45312H11.5752ZM0.764648 12.3311C1.13379 12.3311 1.37988 12.1465 1.5293 11.6719L2.16211 9.84375H5.21191L5.84473 11.6719C6.00293 12.1553 6.24902 12.3311 6.61816 12.3311C7.06641 12.3311 7.38281 12.041 7.38281 11.6191C7.38281 11.4609 7.34766 11.3027 7.26855 11.083L4.80762 4.53516C4.61426 4.00781 4.25391 3.68262 3.67383 3.68262C3.12012 3.68262 2.76855 4.00781 2.5752 4.53516L0.105469 11.083C0.0263672 11.3027 0 11.4697 0 11.6191C0 12.041 0.307617 12.3311 0.764648 12.3311ZM2.54883 8.63965L3.62988 5.3877H3.73535L4.8252 8.63965H2.54883Z"
        fill="#9FA2A8" />
</svg>
    